<svg xmlns="http://www.w3.org/2000/svg" xmlns:xlink="http://www.w3.org/1999/xlink" width="400" zoomAndPan="magnify" viewBox="0 0 300 299.999988" height="400" preserveAspectRatio="xMidYMid meet" version="1.0"><defs><clipPath id="0a142f9ee2"><path d="M 20.671875 50.546875 L 300 50.546875 L 300 270 L 20.671875 270 Z M 20.671875 50.546875 " clip-rule="nonzero"/></clipPath><clipPath id="8cae69245b"><path d="M 272.058594 228.699219 C 272.058594 251.511719 215.78125 270 146.367188 270 C 76.949219 270 20.671875 251.511719 20.671875 228.699219 C 20.671875 215.863281 38.484375 204.394531 66.425781 196.820312 C 69.730469 199.648438 73.273438 202.339844 77.054688 204.890625 C 101.949219 221.648438 128.414062 225.585938 146.222656 225.9375 L 146.472656 225.9375 C 164.359375 225.621094 190.933594 221.71875 215.9375 204.890625 C 219.632812 202.40625 223.15625 199.734375 226.507812 196.878906 C 254.335938 204.453125 272.058594 215.890625 272.058594 228.699219 M 278.640625 160.183594 C 266.382812 170.707031 249.902344 178.558594 231.539062 182.769531 C 227.609375 187.023438 223.25 191.074219 218.410156 194.84375 C 216.421875 196.402344 214.359375 197.898438 212.210938 199.34375 C 187.046875 216.273438 160.824219 219.003906 146.347656 219.253906 C 131.859375 218.964844 105.800781 216.1875 80.789062 199.34375 C 78.621094 197.882812 76.539062 196.371094 74.535156 194.796875 C 30.671875 160.589844 26.15625 103.28125 26.15625 81.25 C 26.15625 76.292969 26.382812 73.125 26.441406 72.40625 C 26.441406 60.335938 80.253906 50.546875 146.644531 50.546875 C 213.03125 50.546875 266.84375 60.335938 266.84375 72.40625 C 266.84375 72.828125 266.769531 73.25 266.644531 73.667969 C 266.71875 74.949219 266.8125 77.082031 266.839844 79.894531 C 283.054688 81.179688 296.21875 93.519531 299.335938 110.796875 C 302.976562 130.988281 291.035156 149.546875 278.640625 160.183594 M 256.148438 72.40625 C 256.148438 63.71875 207.121094 56.671875 146.644531 56.671875 C 86.164062 56.671875 37.148438 63.71875 37.148438 72.40625 C 37.148438 81.097656 86.164062 88.144531 146.644531 88.144531 C 207.121094 88.144531 256.148438 81.097656 256.148438 72.40625 M 283.359375 113.679688 C 281.625 104.082031 274.726562 97.171875 266.210938 96.15625 C 264.761719 113.519531 260.300781 137.839844 247.644531 160.464844 C 255.386719 157.042969 262.316406 152.800781 268.066406 147.867188 C 277.050781 140.15625 285.785156 127.125 283.359375 113.679688 " clip-rule="nonzero"/></clipPath></defs><g clip-path="url(#0a142f9ee2)"><g clip-path="url(#8cae69245b)"><path fill="#bff900" d="M 20.671875 50.546875 L 300 50.546875 L 300 270 L 20.671875 270 Z M 20.671875 50.546875 " fill-opacity="1" fill-rule="nonzero"/></g></g></svg>