<svg xmlns="http://www.w3.org/2000/svg" xmlns:xlink="http://www.w3.org/1999/xlink" width="1324" zoomAndPan="magnify" viewBox="0 0 993 576" height="768" preserveAspectRatio="xMidYMid meet" version="1.0"><defs><g/><clipPath id="547f555204"><path d="M 388.171875 105.957031 L 506 105.957031 L 506 198.273438 L 388.171875 198.273438 Z M 388.171875 105.957031 " clip-rule="nonzero"/></clipPath><clipPath id="bc343383a4"><path d="M 493.921875 180.898438 C 493.921875 190.496094 470.25 198.273438 441.046875 198.273438 C 411.84375 198.273438 388.171875 190.496094 388.171875 180.898438 C 388.171875 175.5 395.664062 170.675781 407.417969 167.488281 C 408.808594 168.679688 410.296875 169.8125 411.890625 170.882812 C 422.363281 177.933594 433.496094 179.589844 440.988281 179.738281 L 441.089844 179.738281 C 448.617188 179.605469 459.796875 177.960938 470.3125 170.882812 C 471.867188 169.839844 473.351562 168.714844 474.761719 167.511719 C 486.464844 170.699219 493.921875 175.511719 493.921875 180.898438 M 496.691406 152.078125 C 491.535156 156.503906 484.601562 159.808594 476.878906 161.578125 C 475.222656 163.367188 473.390625 165.070312 471.355469 166.65625 C 470.519531 167.3125 469.648438 167.941406 468.746094 168.550781 C 458.160156 175.671875 447.128906 176.820312 441.039062 176.925781 C 434.945312 176.804688 423.980469 175.636719 413.460938 168.550781 C 412.546875 167.933594 411.671875 167.300781 410.828125 166.636719 C 392.378906 152.246094 390.476562 128.140625 390.476562 118.871094 C 390.476562 116.785156 390.574219 115.453125 390.597656 115.152344 C 390.597656 110.074219 413.234375 105.957031 441.164062 105.957031 C 469.089844 105.957031 491.730469 110.074219 491.730469 115.152344 C 491.730469 115.328125 491.699219 115.503906 491.644531 115.679688 C 491.675781 116.21875 491.714844 117.117188 491.726562 118.300781 C 498.550781 118.839844 504.085938 124.03125 505.398438 131.300781 C 506.929688 139.792969 501.90625 147.601562 496.691406 152.078125 M 487.230469 115.152344 C 487.230469 111.496094 466.605469 108.53125 441.164062 108.53125 C 415.722656 108.53125 395.101562 111.496094 395.101562 115.152344 C 395.101562 118.808594 415.722656 121.773438 441.164062 121.773438 C 466.605469 121.773438 487.230469 118.808594 487.230469 115.152344 M 498.675781 132.511719 C 497.949219 128.476562 495.046875 125.570312 491.460938 125.140625 C 490.855469 132.445312 488.976562 142.675781 483.652344 152.195312 C 486.910156 150.753906 489.824219 148.96875 492.242188 146.894531 C 496.023438 143.652344 499.695312 138.167969 498.675781 132.511719 " clip-rule="nonzero"/></clipPath><clipPath id="d775ffb8a4"><path d="M 339.917969 334.273438 L 458 334.273438 L 458 426.59375 L 339.917969 426.59375 Z M 339.917969 334.273438 " clip-rule="nonzero"/></clipPath><clipPath id="250d2d6d4d"><path d="M 445.667969 409.21875 C 445.667969 418.816406 421.996094 426.59375 392.792969 426.59375 C 363.59375 426.59375 339.917969 418.816406 339.917969 409.21875 C 339.917969 403.820312 347.410156 398.992188 359.164062 395.808594 C 360.554688 396.996094 362.046875 398.128906 363.636719 399.203125 C 374.109375 406.253906 385.242188 407.910156 392.734375 408.058594 L 392.839844 408.058594 C 400.363281 407.925781 411.542969 406.28125 422.058594 399.203125 C 423.613281 398.160156 425.097656 397.035156 426.507812 395.832031 C 438.214844 399.019531 445.667969 403.832031 445.667969 409.21875 M 448.4375 380.394531 C 443.28125 384.820312 436.351562 388.125 428.625 389.894531 C 426.96875 391.6875 425.136719 393.390625 423.101562 394.976562 C 422.265625 395.632812 421.398438 396.261719 420.492188 396.867188 C 409.90625 403.992188 398.875 405.140625 392.785156 405.246094 C 386.691406 405.125 375.726562 403.953125 365.207031 396.867188 C 364.292969 396.253906 363.417969 395.617188 362.574219 394.957031 C 344.125 380.566406 342.222656 356.457031 342.222656 347.191406 C 342.222656 345.105469 342.320312 343.773438 342.34375 343.46875 C 342.34375 338.390625 364.980469 334.273438 392.910156 334.273438 C 420.839844 334.273438 443.476562 338.390625 443.476562 343.46875 C 443.476562 343.648438 443.445312 343.824219 443.390625 344 C 443.421875 344.539062 443.464844 345.4375 443.472656 346.621094 C 450.296875 347.160156 455.832031 352.351562 457.144531 359.617188 C 458.675781 368.113281 453.652344 375.921875 448.4375 380.394531 M 438.976562 343.46875 C 438.976562 339.8125 418.351562 336.851562 392.910156 336.851562 C 367.46875 336.851562 346.847656 339.8125 346.847656 343.46875 C 346.847656 347.125 367.46875 350.089844 392.910156 350.089844 C 418.351562 350.089844 438.976562 347.125 438.976562 343.46875 M 450.421875 360.832031 C 449.695312 356.796875 446.792969 353.886719 443.210938 353.460938 C 442.601562 360.765625 440.722656 370.996094 435.398438 380.511719 C 438.65625 379.074219 441.570312 377.289062 443.992188 375.214844 C 447.769531 371.96875 451.445312 366.488281 450.421875 360.832031 " clip-rule="nonzero"/></clipPath></defs><path fill="#ff579f" d="M 255.929688 216 L 382.410156 216 L 382.410156 231.75 L 255.929688 231.75 Z M 255.929688 216 " fill-opacity="1" fill-rule="nonzero"/><g fill="#ff579f" fill-opacity="1"><g transform="translate(255.931629, 207.750011)"><g><path d="M 124.765625 -113.90625 L 117.578125 0.78125 L 81.953125 2.34375 L 82.265625 -58.125 L 66.171875 -9.375 L 52.421875 -9.375 L 40.078125 -52.96875 L 39.921875 -2.34375 L 3.828125 -1.25 L 5.390625 -109.21875 L 45.546875 -110.78125 L 61.484375 -59.0625 L 82.734375 -113.90625 Z M 124.765625 -113.90625 "/></g></g></g><path fill="#ff579f" d="M 382.410156 216 L 507.402344 216 L 507.402344 231.75 L 382.410156 231.75 Z M 382.410156 216 " fill-opacity="1" fill-rule="nonzero"/><g fill="#ff579f" fill-opacity="1"><g transform="translate(382.412096, 207.750011)"><g/></g></g><g fill="#ff579f" fill-opacity="1"><g transform="translate(413.661332, 207.750011)"><g/></g></g><g fill="#ff579f" fill-opacity="1"><g transform="translate(444.910567, 207.750011)"><g/></g></g><g fill="#ff579f" fill-opacity="1"><g transform="translate(476.159802, 207.750011)"><g/></g></g><path fill="#ff579f" d="M 507.402344 216 L 705.824219 216 L 705.824219 231.75 L 507.402344 231.75 Z M 507.402344 216 " fill-opacity="1" fill-rule="nonzero"/><g fill="#ff579f" fill-opacity="1"><g transform="translate(507.404278, 207.750011)"><g><path d="M 103.046875 -111.875 L 65.390625 -59.84375 L 97.109375 -4.53125 L 60.859375 1.875 L 37.109375 -31.875 L 35.859375 3.4375 L 3.359375 4.6875 L 5.859375 -115 L 42.265625 -112.96875 L 39.453125 -77.65625 L 63.671875 -115 Z M 103.046875 -111.875 "/></g></g></g><g fill="#ff579f" fill-opacity="1"><g transform="translate(605.683125, 207.750011)"><g><path d="M 102.5 -6.71875 L 63.75 -1.71875 L 59.0625 -19.375 L 41.25 -19.375 L 37.34375 -1.71875 L -2.5 -5.625 L 28.59375 -109.6875 L 72.03125 -111.875 Z M 56.25 -43.28125 L 50.3125 -70.46875 L 44.53125 -43.28125 Z M 56.25 -43.28125 "/></g></g></g><path fill="#ff579f" d="M 705.824219 216 L 737.066406 216 L 737.066406 231.75 L 705.824219 231.75 Z M 705.824219 216 " fill-opacity="1" fill-rule="nonzero"/><g fill="#ff579f" fill-opacity="1"><g transform="translate(705.826145, 207.750011)"><g/></g></g><path fill="#ff579f" d="M 246.824219 439.5 L 333.695312 439.5 L 333.695312 455.25 L 246.824219 455.25 Z M 246.824219 439.5 " fill-opacity="1" fill-rule="nonzero"/><g fill="#ff579f" fill-opacity="1"><g transform="translate(246.82616, 431.250002)"><g><path d="M 86.5625 -111.71875 L 85.78125 -78.59375 L 62.5 -77.65625 L 56.5625 -3.59375 L 23.59375 -1.875 L 23.75 -75.9375 L 0.46875 -74.6875 L 1.40625 -111.5625 Z M 86.5625 -111.71875 "/></g></g></g><path fill="#ff579f" d="M 333.695312 439.5 L 458.6875 439.5 L 458.6875 455.25 L 333.695312 455.25 Z M 333.695312 439.5 " fill-opacity="1" fill-rule="nonzero"/><g fill="#ff579f" fill-opacity="1"><g transform="translate(333.697251, 431.250002)"><g/></g></g><g fill="#ff579f" fill-opacity="1"><g transform="translate(364.946486, 431.250002)"><g/></g></g><g fill="#ff579f" fill-opacity="1"><g transform="translate(396.195721, 431.250002)"><g/></g></g><g fill="#ff579f" fill-opacity="1"><g transform="translate(427.444957, 431.250002)"><g/></g></g><path fill="#ff579f" d="M 458.6875 439.5 L 746.171875 439.5 L 746.171875 455.25 L 458.6875 455.25 Z M 458.6875 439.5 " fill-opacity="1" fill-rule="nonzero"/><g fill="#ff579f" fill-opacity="1"><g transform="translate(458.689433, 431.250002)"><g><path d="M 103.046875 -111.875 L 65.390625 -59.84375 L 97.109375 -4.53125 L 60.859375 1.875 L 37.109375 -31.875 L 35.859375 3.4375 L 3.359375 4.6875 L 5.859375 -115 L 42.265625 -112.96875 L 39.453125 -77.65625 L 63.671875 -115 Z M 103.046875 -111.875 "/></g></g></g><g fill="#ff579f" fill-opacity="1"><g transform="translate(556.968279, 431.250002)"><g><path d="M 77.96875 -112.65625 C 77.65625 -107.757812 77.367188 -102.914062 77.109375 -98.125 C 76.847656 -93.332031 76.507812 -88.488281 76.09375 -83.59375 L 42.96875 -81.875 L 42.1875 -72.03125 L 65.46875 -72.03125 L 63.75 -47.8125 L 40.3125 -47.03125 L 39.53125 -35.625 L 72.65625 -35.625 C 72.34375 -29.894531 72.015625 -24.203125 71.671875 -18.546875 C 71.335938 -12.898438 71.039062 -7.238281 70.78125 -1.5625 L 3.4375 0 L 5.9375 -112.65625 Z M 77.96875 -112.65625 "/></g></g></g><g fill="#ff579f" fill-opacity="1"><g transform="translate(633.607036, 431.250002)"><g><path d="M 110.234375 -112.03125 L 104.609375 -6.09375 L 63.671875 -2.34375 L 41.796875 -59.0625 L 38.359375 -1.25 L 3.203125 -1.25 L 6.015625 -112.03125 L 45.078125 -113.90625 L 72.109375 -57.65625 L 73.359375 -110.78125 Z M 110.234375 -112.03125 "/></g></g></g><g clip-path="url(#547f555204)"><g clip-path="url(#bc343383a4)"><path fill="#bff900" d="M 388.171875 105.957031 L 505.675781 105.957031 L 505.675781 198.273438 L 388.171875 198.273438 Z M 388.171875 105.957031 " fill-opacity="1" fill-rule="nonzero"/></g></g><g clip-path="url(#d775ffb8a4)"><g clip-path="url(#250d2d6d4d)"><path fill="#bff900" d="M 339.917969 334.273438 L 457.425781 334.273438 L 457.425781 426.59375 L 339.917969 426.59375 Z M 339.917969 334.273438 " fill-opacity="1" fill-rule="nonzero"/></g></g></svg>