<svg xmlns="http://www.w3.org/2000/svg" xmlns:xlink="http://www.w3.org/1999/xlink" width="600" zoomAndPan="magnify" viewBox="0 0 450 307.499996" height="410" preserveAspectRatio="xMidYMid meet" version="1.0"><defs><g/><clipPath id="093600c5f1"><path d="M 146.066406 23.167969 L 232 23.167969 L 232 90.433594 L 146.066406 90.433594 Z M 146.066406 23.167969 " clip-rule="nonzero"/></clipPath><clipPath id="4f984471f8"><path d="M 223.121094 77.773438 C 223.121094 84.765625 205.871094 90.433594 184.59375 90.433594 C 163.316406 90.433594 146.066406 84.765625 146.066406 77.773438 C 146.066406 73.839844 151.527344 70.324219 160.09375 68.003906 C 161.105469 68.867188 162.191406 69.695312 163.351562 70.476562 C 170.980469 75.613281 179.09375 76.820312 184.550781 76.925781 L 184.628906 76.925781 C 190.109375 76.832031 198.257812 75.632812 205.917969 70.476562 C 207.050781 69.714844 208.132812 68.894531 209.160156 68.019531 C 217.691406 70.339844 223.121094 73.847656 223.121094 77.773438 M 225.140625 56.773438 C 221.382812 59.996094 216.332031 62.40625 210.703125 63.695312 C 209.496094 65 208.160156 66.242188 206.675781 67.398438 C 206.070312 67.875 205.4375 68.332031 204.777344 68.773438 C 197.066406 73.964844 189.027344 74.800781 184.589844 74.878906 C 180.148438 74.789062 172.160156 73.9375 164.496094 68.773438 C 163.832031 68.328125 163.191406 67.863281 162.578125 67.382812 C 149.132812 56.898438 147.75 39.332031 147.75 32.578125 C 147.75 31.058594 147.820312 30.085938 147.835938 29.867188 C 147.835938 26.167969 164.332031 23.167969 184.679688 23.167969 C 205.03125 23.167969 221.523438 26.167969 221.523438 29.867188 C 221.523438 29.996094 221.5 30.125 221.460938 30.253906 C 221.484375 30.648438 221.515625 31.300781 221.523438 32.164062 C 226.492188 32.554688 230.527344 36.339844 231.484375 41.632812 C 232.597656 47.824219 228.9375 53.511719 225.140625 56.773438 M 218.246094 29.867188 C 218.246094 27.203125 203.21875 25.042969 184.679688 25.042969 C 166.140625 25.042969 151.117188 27.203125 151.117188 29.867188 C 151.117188 32.53125 166.140625 34.691406 184.679688 34.691406 C 203.21875 34.691406 218.246094 32.53125 218.246094 29.867188 M 226.585938 42.519531 C 226.054688 39.578125 223.941406 37.457031 221.328125 37.148438 C 220.886719 42.46875 219.519531 49.925781 215.640625 56.859375 C 218.011719 55.808594 220.136719 54.507812 221.898438 52.996094 C 224.652344 50.632812 227.328125 46.640625 226.585938 42.519531 " clip-rule="nonzero"/></clipPath><clipPath id="3d24b40cb6"><path d="M 110.910156 189.527344 L 197 189.527344 L 197 256.792969 L 110.910156 256.792969 Z M 110.910156 189.527344 " clip-rule="nonzero"/></clipPath><clipPath id="c93f914949"><path d="M 187.964844 244.132812 C 187.964844 251.125 170.714844 256.792969 149.4375 256.792969 C 128.160156 256.792969 110.910156 251.125 110.910156 244.132812 C 110.910156 240.199219 116.367188 236.683594 124.933594 234.363281 C 125.945312 235.230469 127.03125 236.054688 128.191406 236.835938 C 135.824219 241.972656 143.933594 243.179688 149.394531 243.289062 L 149.46875 243.289062 C 154.953125 243.191406 163.097656 241.992188 170.761719 236.835938 C 171.894531 236.074219 172.972656 235.253906 174 234.378906 C 182.53125 236.699219 187.964844 240.207031 187.964844 244.132812 M 189.980469 223.132812 C 186.222656 226.359375 181.171875 228.765625 175.542969 230.054688 C 174.339844 231.359375 173.003906 232.601562 171.519531 233.757812 C 170.910156 234.234375 170.277344 234.691406 169.617188 235.136719 C 161.90625 240.324219 153.867188 241.160156 149.429688 241.238281 C 144.988281 241.148438 137.003906 240.296875 129.335938 235.136719 C 128.671875 234.6875 128.035156 234.226562 127.417969 233.742188 C 113.972656 223.257812 112.589844 205.691406 112.589844 198.9375 C 112.589844 197.417969 112.660156 196.445312 112.675781 196.226562 C 112.675781 192.527344 129.171875 189.527344 149.519531 189.527344 C 169.871094 189.527344 186.367188 192.527344 186.367188 196.226562 C 186.367188 196.355469 186.34375 196.484375 186.304688 196.613281 C 186.328125 197.007812 186.355469 197.660156 186.363281 198.523438 C 191.335938 198.914062 195.367188 202.699219 196.324219 207.992188 C 197.441406 214.183594 193.78125 219.871094 189.980469 223.132812 M 183.085938 196.226562 C 183.085938 193.5625 168.058594 191.402344 149.519531 191.402344 C 130.984375 191.402344 115.957031 193.5625 115.957031 196.226562 C 115.957031 198.890625 130.984375 201.050781 149.523438 201.050781 C 168.058594 201.050781 183.085938 198.890625 183.085938 196.226562 M 191.425781 208.878906 C 190.894531 205.9375 188.78125 203.816406 186.171875 203.507812 C 185.726562 208.828125 184.359375 216.285156 180.480469 223.21875 C 182.855469 222.167969 184.976562 220.871094 186.738281 219.355469 C 189.492188 216.992188 192.171875 213 191.425781 208.878906 " clip-rule="nonzero"/></clipPath></defs><path fill="#ff579f" d="M 49.714844 103.347656 L 141.871094 103.347656 L 141.871094 114.824219 L 49.714844 114.824219 Z M 49.714844 103.347656 " fill-opacity="1" fill-rule="nonzero"/><g fill="#ff579f" fill-opacity="1"><g transform="translate(49.714938, 97.337821)"><g><path d="M 90.90625 -83 L 85.671875 0.5625 L 59.71875 1.703125 L 59.9375 -42.34375 L 48.21875 -6.828125 L 38.1875 -6.828125 L 29.203125 -38.59375 L 29.09375 -1.703125 L 2.796875 -0.90625 L 3.921875 -79.578125 L 33.1875 -80.71875 L 44.796875 -43.03125 L 60.28125 -83 Z M 90.90625 -83 "/></g></g></g><path fill="#ff579f" d="M 141.871094 103.347656 L 232.945312 103.347656 L 232.945312 114.824219 L 141.871094 114.824219 Z M 141.871094 103.347656 " fill-opacity="1" fill-rule="nonzero"/><g fill="#ff579f" fill-opacity="1"><g transform="translate(141.872265, 97.337821)"><g/></g></g><g fill="#ff579f" fill-opacity="1"><g transform="translate(164.641362, 97.337821)"><g/></g></g><g fill="#ff579f" fill-opacity="1"><g transform="translate(187.410459, 97.337821)"><g/></g></g><g fill="#ff579f" fill-opacity="1"><g transform="translate(210.179556, 97.337821)"><g/></g></g><path fill="#ff579f" d="M 232.945312 103.347656 L 377.519531 103.347656 L 377.519531 114.824219 L 232.945312 114.824219 Z M 232.945312 103.347656 " fill-opacity="1" fill-rule="nonzero"/><g fill="#ff579f" fill-opacity="1"><g transform="translate(232.945185, 97.337821)"><g><path d="M 75.078125 -81.515625 L 47.640625 -43.609375 L 70.75 -3.296875 L 44.34375 1.359375 L 27.03125 -23.21875 L 26.125 2.5 L 2.453125 3.421875 L 4.265625 -83.796875 L 30.796875 -82.3125 L 28.75 -56.578125 L 46.390625 -83.796875 Z M 75.078125 -81.515625 "/></g></g></g><g fill="#ff579f" fill-opacity="1"><g transform="translate(304.553994, 97.337821)"><g><path d="M 74.6875 -4.890625 L 46.453125 -1.25 L 43.03125 -14.109375 L 30.0625 -14.109375 L 27.203125 -1.25 L -1.828125 -4.09375 L 20.828125 -79.921875 L 52.484375 -81.515625 Z M 40.984375 -31.53125 L 36.65625 -51.34375 L 32.453125 -31.53125 Z M 40.984375 -31.53125 "/></g></g></g><path fill="#ff579f" d="M 377.519531 103.347656 L 400.285156 103.347656 L 400.285156 114.824219 L 377.519531 114.824219 Z M 377.519531 103.347656 " fill-opacity="1" fill-rule="nonzero"/><g fill="#ff579f" fill-opacity="1"><g transform="translate(377.521096, 97.337821)"><g/></g></g><path fill="#ff579f" d="M 43.082031 266.199219 L 106.378906 266.199219 L 106.378906 277.671875 L 43.082031 277.671875 Z M 43.082031 266.199219 " fill-opacity="1" fill-rule="nonzero"/><g fill="#ff579f" fill-opacity="1"><g transform="translate(43.080431, 260.186379)"><g><path d="M 63.078125 -81.40625 L 62.5 -57.265625 L 45.53125 -56.578125 L 41.21875 -2.625 L 17.1875 -1.359375 L 17.296875 -55.328125 L 0.34375 -54.421875 L 1.03125 -81.28125 Z M 63.078125 -81.40625 "/></g></g></g><path fill="#ff579f" d="M 106.378906 266.199219 L 197.449219 266.199219 L 197.449219 277.671875 L 106.378906 277.671875 Z M 106.378906 266.199219 " fill-opacity="1" fill-rule="nonzero"/><g fill="#ff579f" fill-opacity="1"><g transform="translate(106.37722, 260.186379)"><g/></g></g><g fill="#ff579f" fill-opacity="1"><g transform="translate(129.146317, 260.186379)"><g/></g></g><g fill="#ff579f" fill-opacity="1"><g transform="translate(151.915413, 260.186379)"><g/></g></g><g fill="#ff579f" fill-opacity="1"><g transform="translate(174.68451, 260.186379)"><g/></g></g><path fill="#ff579f" d="M 197.449219 266.199219 L 406.917969 266.199219 L 406.917969 277.671875 L 197.449219 277.671875 Z M 197.449219 266.199219 " fill-opacity="1" fill-rule="nonzero"/><g fill="#ff579f" fill-opacity="1"><g transform="translate(197.450139, 260.186379)"><g><path d="M 75.078125 -81.515625 L 47.640625 -43.609375 L 70.75 -3.296875 L 44.34375 1.359375 L 27.03125 -23.21875 L 26.125 2.5 L 2.453125 3.421875 L 4.265625 -83.796875 L 30.796875 -82.3125 L 28.75 -56.578125 L 46.390625 -83.796875 Z M 75.078125 -81.515625 "/></g></g></g><g fill="#ff579f" fill-opacity="1"><g transform="translate(269.058949, 260.186379)"><g><path d="M 56.8125 -82.078125 C 56.582031 -78.515625 56.367188 -74.988281 56.171875 -71.5 C 55.984375 -68.007812 55.738281 -64.476562 55.4375 -60.90625 L 31.3125 -59.65625 L 30.734375 -52.484375 L 47.703125 -52.484375 L 46.453125 -34.84375 L 29.375 -34.265625 L 28.796875 -25.953125 L 52.9375 -25.953125 C 52.707031 -21.785156 52.46875 -17.640625 52.21875 -13.515625 C 51.976562 -9.398438 51.765625 -5.273438 51.578125 -1.140625 L 2.5 0 L 4.328125 -82.078125 Z M 56.8125 -82.078125 "/></g></g></g><g fill="#ff579f" fill-opacity="1"><g transform="translate(324.900164, 260.186379)"><g><path d="M 80.3125 -81.625 L 76.21875 -4.4375 L 46.390625 -1.703125 L 30.453125 -43.03125 L 27.953125 -0.90625 L 2.328125 -0.90625 L 4.390625 -81.625 L 32.84375 -83 L 52.546875 -42.015625 L 53.453125 -80.71875 Z M 80.3125 -81.625 "/></g></g></g><g clip-path="url(#093600c5f1)"><g clip-path="url(#4f984471f8)"><path fill="#bff900" d="M 146.066406 23.167969 L 231.6875 23.167969 L 231.6875 90.433594 L 146.066406 90.433594 Z M 146.066406 23.167969 " fill-opacity="1" fill-rule="nonzero"/></g></g><g clip-path="url(#3d24b40cb6)"><g clip-path="url(#c93f914949)"><path fill="#bff900" d="M 110.910156 189.527344 L 196.527344 189.527344 L 196.527344 256.792969 L 110.910156 256.792969 Z M 110.910156 189.527344 " fill-opacity="1" fill-rule="nonzero"/></g></g></svg>